<?xml version="1.0" encoding="UTF-8" standalone="no"?>
<!-- Created with Inkscape (http://www.inkscape.org/) -->

<svg
   xmlns:dc="http://purl.org/dc/elements/1.1/"
   xmlns:cc="http://creativecommons.org/ns#"
   xmlns:rdf="http://www.w3.org/1999/02/22-rdf-syntax-ns#"
   xmlns:svg="http://www.w3.org/2000/svg"
   xmlns="http://www.w3.org/2000/svg"
   xmlns:sodipodi="http://sodipodi.sourceforge.net/DTD/sodipodi-0.dtd"
   xmlns:inkscape="http://www.inkscape.org/namespaces/inkscape"
   width="31.377819mm"
   height="30.979639mm"
   viewBox="0 0 31.377819 30.979639"
   version="1.1"
   id="svg8"
   inkscape:version="0.92.2 (5c3e80d, 2017-08-06)"
   sodipodi:docname="PleaseWaitt.svg">
  <defs
     id="defs2" />
  <sodipodi:namedview
     id="base"
     pagecolor="#ffffff"
     bordercolor="#666666"
     borderopacity="1.0"
     inkscape:pageopacity="0.0"
     inkscape:pageshadow="2"
     inkscape:zoom="2.8"
     inkscape:cx="48.128618"
     inkscape:cy="67.966515"
     inkscape:document-units="mm"
     inkscape:current-layer="layer1"
     showgrid="false"
     inkscape:snap-bbox="true"
     inkscape:snap-bbox-midpoints="true"
     inkscape:snap-intersection-paths="true"
     inkscape:object-paths="true"
     inkscape:snap-bbox-edge-midpoints="false"
     inkscape:bbox-nodes="true"
     inkscape:bbox-paths="false"
     inkscape:snap-midpoints="false"
     inkscape:snap-smooth-nodes="true"
     inkscape:snap-object-midpoints="true"
     inkscape:snap-center="true"
     fit-margin-top="1"
     fit-margin-left="1"
     fit-margin-right="1"
     fit-margin-bottom="1"
     inkscape:window-width="1920"
     inkscape:window-height="1017"
     inkscape:window-x="-8"
     inkscape:window-y="-8"
     inkscape:window-maximized="1" />
  <metadata
     id="metadata5">
    <rdf:RDF>
      <cc:Work
         rdf:about="">
        <dc:format>image/svg+xml</dc:format>
        <dc:type
           rdf:resource="http://purl.org/dc/dcmitype/StillImage" />
        <dc:title></dc:title>
      </cc:Work>
    </rdf:RDF>
  </metadata>
  <g
     inkscape:label="Layer 1"
     inkscape:groupmode="layer"
     id="layer1"
     transform="translate(-67.460972,-102.62299)">
    <path
       style="opacity:1;fill:#808080;fill-opacity:0.50196078;stroke:none;stroke-width:1;stroke-linecap:round;stroke-linejoin:miter;stroke-miterlimit:4;stroke-dasharray:none;stroke-dashoffset:0;stroke-opacity:1;paint-order:stroke fill markers"
       d="m 97.838791,120.005 a 4.0090427,4.0090427 0 0 1 -4.009043,4.00904 4.0090427,4.0090427 0 0 1 -4.009043,-4.00904 4.0090427,4.0090427 0 0 1 4.009043,-4.00905 4.0090427,4.0090427 0 0 1 4.009043,4.00905 z"
       id="path815"
       inkscape:connector-curvature="0" />
    <path
       inkscape:connector-curvature="0"
       style="opacity:1;fill:#808080;fill-opacity:0.50196078;stroke:none;stroke-width:1;stroke-linecap:round;stroke-linejoin:miter;stroke-miterlimit:4;stroke-dasharray:none;stroke-dashoffset:0;stroke-opacity:1;paint-order:stroke fill markers"
       d="m 86.236591,107.63203 a 4.0090429,4.0090429 0 0 1 -4.009044,4.00904 4.0090429,4.0090429 0 0 1 -4.009043,-4.00904 4.0090429,4.0090429 0 0 1 4.009043,-4.00904 4.0090429,4.0090429 0 0 1 4.009044,4.00904 z"
       id="path815-8" />
    <path
       inkscape:connector-curvature="0"
       style="opacity:1;fill:#808080;fill-opacity:0.50196078;stroke:none;stroke-width:1;stroke-linecap:round;stroke-linejoin:miter;stroke-miterlimit:4;stroke-dasharray:none;stroke-dashoffset:0;stroke-opacity:1;paint-order:stroke fill markers"
       d="m 77.899823,112.17952 a 4.0090429,4.0090429 0 0 1 -4.009043,4.00904 4.0090429,4.0090429 0 0 1 -4.009043,-4.00904 4.0090429,4.0090429 0 0 1 4.009043,-4.00904 4.0090429,4.0090429 0 0 1 4.009043,4.00904 z"
       id="path815-0" />
    <path
       inkscape:connector-curvature="0"
       style="opacity:1;fill:#808080;fill-opacity:0.50196078;stroke:none;stroke-width:1;stroke-linecap:round;stroke-linejoin:miter;stroke-miterlimit:4;stroke-dasharray:none;stroke-dashoffset:0;stroke-opacity:1;paint-order:stroke fill markers"
       d="m 76.479058,121.60568 a 4.0090429,4.0090429 0 0 1 -4.009043,4.00904 4.0090429,4.0090429 0 0 1 -4.009043,-4.00904 4.0090429,4.0090429 0 0 1 4.009043,-4.00904 4.0090429,4.0090429 0 0 1 4.009043,4.00904 z"
       id="path815-5" />
    <path
       inkscape:connector-curvature="0"
       style="opacity:1;fill:#808080;fill-opacity:0.50196078;stroke:none;stroke-width:1;stroke-linecap:round;stroke-linejoin:miter;stroke-miterlimit:4;stroke-dasharray:none;stroke-dashoffset:0;stroke-opacity:1;paint-order:stroke fill markers"
       d="m 82.962893,128.59358 a 4.0090429,4.0090429 0 0 1 -4.009043,4.00905 4.0090429,4.0090429 0 0 1 -4.009043,-4.00905 4.0090429,4.0090429 0 0 1 4.009043,-4.00904 4.0090429,4.0090429 0 0 1 4.009043,4.00904 z"
       id="path815-7" />
    <path
       inkscape:connector-curvature="0"
       style="opacity:1;fill:#808080;fill-opacity:0.50196078;stroke:none;stroke-width:1;stroke-linecap:round;stroke-linejoin:miter;stroke-miterlimit:4;stroke-dasharray:none;stroke-dashoffset:0;stroke-opacity:1;paint-order:stroke fill markers"
       d="m 92.468869,127.88122 a 4.0090429,4.0090429 0 0 1 -4.009043,4.00904 4.0090429,4.0090429 0 0 1 -4.009043,-4.00904 4.0090429,4.0090429 0 0 1 4.009043,-4.00904 4.0090429,4.0090429 0 0 1 4.009043,4.00904 z"
       id="path815-06" />
    <path
       style="opacity:1;fill:#808080;fill-opacity:0.50196078;stroke:none;stroke-width:1;stroke-linecap:round;stroke-linejoin:miter;stroke-miterlimit:4;stroke-dasharray:none;stroke-dashoffset:0;stroke-opacity:1;paint-order:stroke fill markers"
       d="m 95.029001,110.89587 a 4.0090429,4.0090429 0 0 1 -4.00904,4.00904 4.0090429,4.0090429 0 0 1 -4.00905,-4.00904 4.0090429,4.0090429 0 0 1 4.00905,-4.00904 4.0090429,4.0090429 0 0 1 4.00904,4.00904 z"
       id="path815-061"
       inkscape:connector-curvature="0" />
  </g>
</svg>
